<?xml version="1.0" encoding="UTF-8"?>
<svg version="1.1" xmlns="http://www.w3.org/2000/svg" width="512" height="512">
<path d="M0 0 C1.54849233 -0.00571255 3.09698045 -0.01268021 4.64546204 -0.02079773 C8.82535577 -0.03864767 13.00503863 -0.03757612 17.18495893 -0.03185534 C20.68617227 -0.0287513 24.18734581 -0.03486948 27.68855345 -0.04089409 C35.95467519 -0.05491121 44.22069352 -0.05340182 52.48681641 -0.04199219 C60.9881506 -0.03051653 69.4891691 -0.04458373 77.99046171 -0.07138866 C85.31395499 -0.09360746 92.63734963 -0.10016908 99.9608742 -0.09431225 C104.32406405 -0.09095587 108.68705166 -0.09326921 113.05021286 -0.11056328 C117.1560642 -0.12612909 121.26145114 -0.12197128 125.36728477 -0.10325813 C126.86515533 -0.09959858 128.36306104 -0.10260292 129.86089897 -0.11314392 C142.04881418 -0.19229922 152.82132764 1.1894375 162.42560577 9.30243683 C165.41105983 12.38733771 167.62131556 15.81057056 169.90738678 19.43175507 C181.14447913 36.9635822 196.96992853 55.84333818 218.03915405 60.91531372 C249.16397526 67.09161276 282.6197568 64.32710496 314.11308718 63.08055162 C328.34977604 62.52567978 342.58957889 62.28053733 356.83447266 62.04077148 C361.84873604 61.95511845 366.86295686 61.86747971 371.87713623 61.77703857 C373.69880283 61.74427122 373.69880283 61.74427122 375.55727077 61.71084189 C383.86892923 61.55266291 392.17535469 61.30974195 400.48370361 61.02960205 C403.77548291 60.92638408 407.06730453 60.8246371 410.3591423 60.72330284 C412.40559597 60.65547995 414.45181141 60.57993246 416.49766159 60.49585152 C430.40405289 59.92434563 442.33149762 59.98605772 453.49462891 69.49389648 C461.10517426 76.89261751 465.54173913 85.35921574 465.96563053 96.06709099 C465.98880861 98.65119737 465.99089839 101.22959599 465.97413635 103.8132019 C465.97946936 105.25696747 465.98653937 106.70072747 465.99518341 108.14447701 C466.01373813 112.08938762 466.00753072 116.03392098 465.99703038 119.97884679 C465.99001784 124.24209524 466.0060519 128.50526778 466.01902771 132.76849365 C466.04063912 141.11185443 466.04054808 149.45507865 466.03240217 157.7984582 C466.02609491 164.58207395 466.02724586 171.36564996 466.03367424 178.14926529 C466.0345759 179.11582215 466.03547755 180.08237901 466.03640653 181.07822547 C466.03825779 183.04197137 466.04012035 185.00571725 466.04199409 186.96946312 C466.05856281 205.37319905 466.04986147 223.77685826 466.03300851 242.18058957 C466.01831469 259.00428262 466.03293713 275.82779703 466.06177867 292.65146707 C466.09119739 309.94105081 466.10213758 327.23055217 466.09259647 344.52015984 C466.09157396 346.4771761 466.09057935 348.43419237 466.08961296 350.39120865 C466.08913657 351.35400882 466.08866018 352.31680899 466.08816935 353.30878492 C466.08600837 360.08001238 466.09579257 366.85116157 466.11038399 373.62237167 C466.12793191 381.88052498 466.12775481 390.13845065 466.10503233 398.39659511 C466.09391205 402.60679463 466.09067702 406.81659345 466.10933304 411.02677536 C466.12621876 414.88725163 466.11967877 418.74698024 466.09511625 422.60740878 C466.09025888 423.99762051 466.09367741 425.3878935 466.10660369 426.77805363 C466.21465348 439.31107647 463.41447804 449.34635558 454.55712891 458.50170898 C443.36560507 468.65119149 430.6302614 468.84436787 416.25393677 468.79173279 C414.39769509 468.79590905 412.54145597 468.80138818 410.68522155 468.8080526 C405.60022306 468.82248745 400.51538693 468.81826857 395.43037963 468.81088579 C389.94014327 468.80615159 384.44994191 468.81866621 378.9597168 468.8289032 C368.21003239 468.84609157 357.46040643 468.84693112 346.71071185 468.84169029 C337.97248834 468.83764743 329.2342821 468.83909354 320.49605942 468.84443855 C319.25196643 468.84518697 318.00787345 468.8459354 316.72608068 468.8467065 C314.19863479 468.84823799 311.6711889 468.84977634 309.14374302 468.85132147 C292.17641422 468.86114876 275.20909251 468.86531552 258.24176216 468.85769558 C257.24707566 468.85724982 257.24707566 468.85724982 256.23229448 468.85679505 C250.84766992 468.85434626 245.46304543 468.8517346 240.07842096 468.84911092 C219.07764089 468.83900958 198.07694079 468.84736336 177.07617188 468.87060547 C153.46632865 468.89669301 129.85652157 468.90947249 106.24666107 468.90241772 C93.75133079 468.89892521 81.25606617 468.90115974 68.760746 468.91866875 C58.12377636 468.93338902 47.48691861 468.93402835 36.84995116 468.91659784 C31.42466108 468.90808412 25.9995709 468.90594756 20.57429123 468.92124939 C15.60369547 468.93509506 10.6334709 468.93033463 5.66289662 468.91101015 C3.86891691 468.9072495 2.07490748 468.91017397 0.28095426 468.9206218 C-13.81696481 468.99686062 -25.92519614 467.72392741 -36.54052734 457.40405273 C-46.09234188 447.12570197 -47.12911945 436.12166544 -47.05519104 422.71707153 C-47.06052171 421.02581899 -47.06759038 419.3345712 -47.0762381 417.64333236 C-47.09482353 413.01434543 -47.08857459 408.38567932 -47.07808506 403.7566793 C-47.07108138 398.75723234 -47.08709991 393.75785052 -47.1000824 388.75842285 C-47.12170841 378.97125982 -47.12159901 369.18421313 -47.11345685 359.39703406 C-47.10715303 351.44065122 -47.1082974 343.48430226 -47.11472893 335.52791977 C-47.11608141 333.82830197 -47.11608141 333.82830197 -47.11746122 332.09434845 C-47.11931245 329.79238256 -47.12117501 327.49041667 -47.12304877 325.1884508 C-47.13962254 303.60861146 -47.1309118 282.02883753 -47.1140632 260.44900213 C-47.09936843 240.71538209 -47.11399229 220.98191434 -47.14283336 201.24831392 C-47.17224136 180.97550031 -47.18319542 160.70275694 -47.17365116 140.42992294 C-47.17262863 138.13588771 -47.17163402 135.84185248 -47.17066765 133.54781723 C-47.16995306 131.85484705 -47.16995306 131.85484705 -47.16922404 130.12767545 C-47.16706167 122.18425288 -47.17685465 114.24089696 -47.19143867 106.29748917 C-47.2089733 96.61203318 -47.20882838 86.92677129 -47.18608702 77.24132289 C-47.17495491 72.30204797 -47.17175906 67.36311487 -47.19038773 62.42385483 C-47.20723995 57.89726488 -47.20077745 53.37131363 -47.17617094 48.84476469 C-47.17130277 47.21229301 -47.1747619 45.57976934 -47.18765838 43.94734134 C-47.28404418 30.79156252 -45.10518649 20.09191536 -35.63818359 10.30639648 C-25.2199208 0.85817678 -13.53220355 -0.04534702 0 0 Z " fill="#FECE65" transform="translate(46.54052734375,21.595947265625)"/>
<path d="M0 0 C1.54849233 -0.00571255 3.09698045 -0.01268021 4.64546204 -0.02079773 C8.82535577 -0.03864767 13.00503863 -0.03757612 17.18495893 -0.03185534 C20.68617227 -0.0287513 24.18734581 -0.03486948 27.68855345 -0.04089409 C35.95467519 -0.05491121 44.22069352 -0.05340182 52.48681641 -0.04199219 C60.9881506 -0.03051653 69.4891691 -0.04458373 77.99046171 -0.07138866 C85.31395499 -0.09360746 92.63734963 -0.10016908 99.9608742 -0.09431225 C104.32406405 -0.09095587 108.68705166 -0.09326921 113.05021286 -0.11056328 C117.1560642 -0.12612909 121.26145114 -0.12197128 125.36728477 -0.10325813 C126.86515533 -0.09959858 128.36306104 -0.10260292 129.86089897 -0.11314392 C142.04881418 -0.19229922 152.82132764 1.1894375 162.42560577 9.30243683 C165.41105983 12.38733771 167.62131556 15.81057056 169.90738678 19.43175507 C181.14447913 36.9635822 196.96992853 55.84333818 218.03915405 60.91531372 C249.16397526 67.09161276 282.6197568 64.32710496 314.11308718 63.08055162 C328.34977604 62.52567978 342.58957889 62.28053733 356.83447266 62.04077148 C361.84873604 61.95511845 366.86295686 61.86747971 371.87713623 61.77703857 C373.69880283 61.74427122 373.69880283 61.74427122 375.55727077 61.71084189 C383.86892923 61.55266291 392.17535469 61.30974195 400.48370361 61.02960205 C403.77548291 60.92638408 407.06730453 60.8246371 410.3591423 60.72330284 C412.40559597 60.65547995 414.45181141 60.57993246 416.49766159 60.49585152 C430.40405289 59.92434563 442.33149762 59.98605772 453.49462891 69.49389648 C461.10517426 76.89261751 465.54173913 85.35921574 465.96563053 96.06709099 C465.98880861 98.65119737 465.99089839 101.22959599 465.97413635 103.8132019 C465.97946936 105.25696747 465.98653937 106.70072747 465.99518341 108.14447701 C466.01373813 112.08938762 466.00753072 116.03392098 465.99703038 119.97884679 C465.99001784 124.24209524 466.0060519 128.50526778 466.01902771 132.76849365 C466.04063912 141.11185443 466.04054808 149.45507865 466.03240217 157.7984582 C466.02609491 164.58207395 466.02724586 171.36564996 466.03367424 178.14926529 C466.0345759 179.11582215 466.03547755 180.08237901 466.03640653 181.07822547 C466.03825779 183.04197137 466.04012035 185.00571725 466.04199409 186.96946312 C466.05856281 205.37319905 466.04986147 223.77685826 466.03300851 242.18058957 C466.01831469 259.00428262 466.03293713 275.82779703 466.06177867 292.65146707 C466.09119739 309.94105081 466.10213758 327.23055217 466.09259647 344.52015984 C466.09157396 346.4771761 466.09057935 348.43419237 466.08961296 350.39120865 C466.08913657 351.35400882 466.08866018 352.31680899 466.08816935 353.30878492 C466.08600837 360.08001238 466.09579257 366.85116157 466.11038399 373.62237167 C466.12793191 381.88052498 466.12775481 390.13845065 466.10503233 398.39659511 C466.09391205 402.60679463 466.09067702 406.81659345 466.10933304 411.02677536 C466.12621876 414.88725163 466.11967877 418.74698024 466.09511625 422.60740878 C466.09025888 423.99762051 466.09367741 425.3878935 466.10660369 426.77805363 C466.21465348 439.31107647 463.41447804 449.34635558 454.55712891 458.50170898 C443.36560507 468.65119149 430.6302614 468.84436787 416.25393677 468.79173279 C414.39769509 468.79590905 412.54145597 468.80138818 410.68522155 468.8080526 C405.60022306 468.82248745 400.51538693 468.81826857 395.43037963 468.81088579 C389.94014327 468.80615159 384.44994191 468.81866621 378.9597168 468.8289032 C368.21003239 468.84609157 357.46040643 468.84693112 346.71071185 468.84169029 C337.97248834 468.83764743 329.2342821 468.83909354 320.49605942 468.84443855 C319.25196643 468.84518697 318.00787345 468.8459354 316.72608068 468.8467065 C314.19863479 468.84823799 311.6711889 468.84977634 309.14374302 468.85132147 C292.17641422 468.86114876 275.20909251 468.86531552 258.24176216 468.85769558 C257.24707566 468.85724982 257.24707566 468.85724982 256.23229448 468.85679505 C250.84766992 468.85434626 245.46304543 468.8517346 240.07842096 468.84911092 C219.07764089 468.83900958 198.07694079 468.84736336 177.07617188 468.87060547 C153.46632865 468.89669301 129.85652157 468.90947249 106.24666107 468.90241772 C93.75133079 468.89892521 81.25606617 468.90115974 68.760746 468.91866875 C58.12377636 468.93338902 47.48691861 468.93402835 36.84995116 468.91659784 C31.42466108 468.90808412 25.9995709 468.90594756 20.57429123 468.92124939 C15.60369547 468.93509506 10.6334709 468.93033463 5.66289662 468.91101015 C3.86891691 468.9072495 2.07490748 468.91017397 0.28095426 468.9206218 C-13.81696481 468.99686062 -25.92519614 467.72392741 -36.54052734 457.40405273 C-46.09234188 447.12570197 -47.12911945 436.12166544 -47.05519104 422.71707153 C-47.06052171 421.02581899 -47.06759038 419.3345712 -47.0762381 417.64333236 C-47.09482353 413.01434543 -47.08857459 408.38567932 -47.07808506 403.7566793 C-47.07108138 398.75723234 -47.08709991 393.75785052 -47.1000824 388.75842285 C-47.12170841 378.97125982 -47.12159901 369.18421313 -47.11345685 359.39703406 C-47.10715303 351.44065122 -47.1082974 343.48430226 -47.11472893 335.52791977 C-47.11608141 333.82830197 -47.11608141 333.82830197 -47.11746122 332.09434845 C-47.11931245 329.79238256 -47.12117501 327.49041667 -47.12304877 325.1884508 C-47.13962254 303.60861146 -47.1309118 282.02883753 -47.1140632 260.44900213 C-47.09936843 240.71538209 -47.11399229 220.98191434 -47.14283336 201.24831392 C-47.17224136 180.97550031 -47.18319542 160.70275694 -47.17365116 140.42992294 C-47.17262863 138.13588771 -47.17163402 135.84185248 -47.17066765 133.54781723 C-47.16995306 131.85484705 -47.16995306 131.85484705 -47.16922404 130.12767545 C-47.16706167 122.18425288 -47.17685465 114.24089696 -47.19143867 106.29748917 C-47.2089733 96.61203318 -47.20882838 86.92677129 -47.18608702 77.24132289 C-47.17495491 72.30204797 -47.17175906 67.36311487 -47.19038773 62.42385483 C-47.20723995 57.89726488 -47.20077745 53.37131363 -47.17617094 48.84476469 C-47.17130277 47.21229301 -47.1747619 45.57976934 -47.18765838 43.94734134 C-47.28404418 30.79156252 -45.10518649 20.09191536 -35.63818359 10.30639648 C-25.2199208 0.85817678 -13.53220355 -0.04534702 0 0 Z M265.65869141 142.39624023 C264.8135498 143.19513672 263.9684082 143.9940332 263.09765625 144.81713867 C262.22705566 145.67082031 261.35645508 146.52450195 260.45947266 147.40405273 C259.57727051 148.26546875 258.69506836 149.12688477 257.78613281 150.0144043 C255.43057887 152.34020476 253.08972416 154.67861317 250.75909424 157.02926636 C249.23119837 158.57017427 247.69998206 160.10771754 246.16796875 161.64453125 C242.92893042 164.8948525 239.69392462 168.14916836 236.45947266 171.40405273 C232.67961855 175.20755963 228.89810183 179.00938432 225.11239624 182.80706787 C223.60468909 184.32124949 222.10002281 185.83840882 220.59545898 187.35571289 C219.68691162 188.26756348 218.77836426 189.17941406 217.84228516 190.11889648 C217.04193848 190.92447998 216.2415918 191.73006348 215.41699219 192.56005859 C211.54937949 196.20337097 207.66526377 195.53983835 202.62376404 195.52189636 C201.69735534 195.52260094 200.77094665 195.52330553 199.81646496 195.52403146 C196.69281056 195.52534638 193.56920593 195.51965307 190.44555664 195.51416016 C188.21358744 195.51391816 185.98161813 195.51419483 183.74964905 195.51495361 C178.9325724 195.51606204 174.11550525 195.51462145 169.29842949 195.51158714 C161.68005758 195.50796276 154.0617356 195.51707727 146.44337463 195.52937317 C144.5163209 195.53240606 144.5163209 195.53240606 142.55033678 195.53550023 C139.92268303 195.53966914 137.29502933 195.5438719 134.66737568 195.54810774 C127.90854143 195.55883694 121.14970666 195.56871658 114.39086914 195.57714844 C113.37331658 195.57842531 113.37331658 195.57842531 112.33520741 195.57972798 C101.35476169 195.59293371 90.37438869 195.58793907 79.39394378 195.57707687 C68.11737465 195.56643566 56.84098361 195.5790764 45.56444222 195.61115915 C39.23435549 195.62831931 32.90467157 195.63459534 26.57458305 195.61504173 C20.61626622 195.59680461 14.65864275 195.60644122 8.70038414 195.63729858 C6.51592791 195.64366146 4.33141394 195.63981845 2.14699936 195.62490273 C-0.84147305 195.60601507 -3.82757394 195.62417702 -6.81593323 195.65129089 C-8.10526783 195.62988856 -8.10526783 195.62988856 -9.42064959 195.60805386 C-16.05317672 195.72921247 -20.58376425 198.01210792 -25.54052734 202.40405273 C-30.31106493 208.63439206 -31.68988299 213.23678157 -31.69442749 221.04321289 C-31.69880974 221.94849826 -31.703192 222.85378363 -31.70770705 223.78650188 C-31.72112717 226.83870838 -31.72728119 229.89088597 -31.73339844 232.94311523 C-31.74129707 235.1242028 -31.74956587 237.30528904 -31.75817871 239.4863739 C-31.78443332 246.66725409 -31.79971291 253.8481402 -31.81396484 261.02905273 C-31.8193237 263.49970504 -31.82470121 265.9703573 -31.8300972 268.44100952 C-31.85173376 278.7196553 -31.87046964 288.99829948 -31.88171959 299.27696228 C-31.88465891 301.9451396 -31.88761089 304.6133169 -31.890625 307.28149414 C-31.89137105 307.94464713 -31.8921171 308.60780011 -31.89288576 309.29104865 C-31.90474076 319.35531919 -31.93358317 329.41944322 -31.97265625 339.48364258 C-32.01788976 351.17249235 -32.04567411 362.86122088 -32.05164015 374.55015945 C-32.05529272 380.73662351 -32.06730396 386.92280615 -32.09974289 393.10919189 C-32.12984434 398.9336049 -32.13612759 404.75756656 -32.12435913 410.58204079 C-32.12413855 412.71611018 -32.13243047 414.85020064 -32.15001297 416.98419762 C-32.73374967 432.08631076 -32.73374967 432.08631076 -26.54052734 445.40405273 C-20.07228416 451.51578781 -13.80085209 453.7149527 -4.89047432 453.65852833 C-4.13631011 453.66173481 -3.3821459 453.66494128 -2.60512823 453.66824493 C-0.07563343 453.67655254 2.45362506 453.67061799 4.98312378 453.66474915 C6.81401352 453.66776948 8.644902 453.67165837 10.47578824 453.67634171 C15.50910769 453.68664565 20.5423561 453.68443379 25.57568145 453.68016112 C31.00319044 453.67769824 36.43068212 453.6867026 41.85818481 453.69419861 C52.49209552 453.70695986 63.12598098 453.70873752 73.75989805 453.70639835 C82.40194789 453.70461661 91.04399005 453.70636172 99.68603897 453.71062279 C100.91517664 453.71121798 102.14431431 453.71181317 103.41069857 453.71242639 C105.90755152 453.71363812 108.40440447 453.71485225 110.90125741 453.71606877 C133.65845959 453.7266395 156.41564844 453.7251743 179.17285147 453.71920082 C199.94467818 453.71384352 220.71646245 453.72177415 241.48828125 453.74023438 C264.82557784 453.76095029 288.1628483 453.77164677 311.50015461 453.76765889 C323.85679629 453.76574479 336.21339929 453.76825474 348.57003403 453.78237343 C359.08935261 453.79427098 369.60860871 453.79571038 380.12792812 453.78358326 C385.49595787 453.77768316 390.86387323 453.77662641 396.23189545 453.78858566 C401.14563775 453.79940571 406.05916965 453.79638738 410.97290196 453.78232398 C412.75078039 453.77966634 414.52867511 453.78207692 416.30653761 453.79005984 C418.72385797 453.8001609 421.14044623 453.79174854 423.55773735 453.77878284 C424.24733553 453.78609219 424.93693371 453.79340154 425.64742881 453.80093238 C432.44993831 453.72534761 438.99856443 451.6844248 444.08771151 447.02146864 C450.08095345 439.95495791 451.18927183 432.49207229 451.10112 423.52502441 C451.10962551 422.36789051 451.11813103 421.2107566 451.1268943 420.01855803 C451.14521988 416.83349301 451.14138488 413.64937992 451.12775505 410.4643209 C451.11845435 407.0190867 451.1380224 403.57399373 451.1537323 400.12879944 C451.17975462 393.39030149 451.17875049 386.65207093 451.16769411 379.91354191 C451.1591193 374.43472177 451.15997936 368.95597871 451.16749001 363.47715759 C451.16854489 362.69597249 451.16959978 361.91478739 451.17068664 361.10993001 C451.17285766 359.52273164 451.17504444 357.93553329 451.17724679 356.34833497 C451.19665471 341.48174816 451.18469944 326.6153111 451.16246084 311.74873656 C451.14420956 299.00564291 451.15511835 286.262839 451.18676758 273.51977539 C451.22356121 258.70465877 451.24054129 243.88972303 451.2273553 229.07456064 C451.22601427 227.49335641 451.22470528 225.91215216 451.22342873 224.33094788 C451.22279806 223.55306167 451.2221674 222.77517546 451.22151762 221.97371694 C451.21849543 216.50447162 451.22972808 211.03536325 451.24667931 205.56614685 C451.26704041 198.89658247 451.2660798 192.22742687 451.23804691 185.55788362 C451.22430919 182.15793129 451.22001282 178.75869169 451.24199677 175.35876656 C451.26067826 171.66618887 451.242262 167.97556172 451.21464539 164.28308105 C451.22871184 163.2178923 451.24277829 162.15270354 451.25727099 161.05523634 C451.14343951 153.48495991 449.05894444 148.41896284 444.45947266 142.40405273 C442.20612198 140.13829435 442.20612198 140.13829435 439.83447266 138.84155273 C439.09970703 138.38651367 438.36494141 137.93147461 437.60791016 137.46264648 C433.4801322 135.42877771 429.79992073 135.27582804 425.22381592 135.26361084 C423.94251297 135.2579007 422.66121002 135.25219055 421.34107971 135.24630737 C419.92318735 135.24506209 418.50529488 135.24393698 417.08740234 135.24291992 C415.59242124 135.23828996 414.09744132 135.23326506 412.60246277 135.22787476 C408.54237505 135.21476513 404.48230387 135.2083085 400.4221983 135.2038641 C397.88400488 135.20093081 395.34581596 135.19682549 392.80762482 135.19235992 C384.86158703 135.17868824 376.91555953 135.1690202 368.96951079 135.16515803 C359.80568381 135.16067917 350.64200612 135.14313791 341.47822452 135.11415744 C334.38932706 135.09251924 327.30047154 135.0824526 320.21154141 135.08111691 C315.98031194 135.08007034 311.74922288 135.07419405 307.51802826 135.0562973 C303.53547156 135.03977978 299.55316025 135.03767887 295.57058144 135.04643631 C294.11295475 135.04720474 292.65531467 135.04288959 291.19772148 135.03297806 C281.11834894 134.96848621 273.29537263 135.11563027 265.65869141 142.39624023 Z " fill="#030202" transform="translate(46.54052734375,21.595947265625)"/>
<path d="M0 0 C0.65281069 -0.00508782 1.30562137 -0.01017564 1.9782142 -0.01541764 C4.17593927 -0.031172 6.37363138 -0.03967513 8.57139587 -0.04811096 C10.14327708 -0.05764731 11.71515617 -0.06753837 13.28703308 -0.07775879 C18.45983886 -0.10917911 23.63266087 -0.12941933 28.80552673 -0.14796448 C29.68571118 -0.1512618 30.56589563 -0.15455912 31.47275233 -0.15795636 C39.77555469 -0.18874669 48.07836066 -0.21545325 56.38120365 -0.23237514 C66.99780525 -0.25426616 77.61390005 -0.29619487 88.23029906 -0.36581272 C95.6962328 -0.41310517 103.1620301 -0.43731598 110.62810892 -0.44457203 C115.08594627 -0.44952183 119.54321284 -0.46453725 124.00088692 -0.50431633 C128.19946377 -0.54128751 132.3971464 -0.54955851 136.59585571 -0.5363102 C138.13210573 -0.53636398 139.66839639 -0.54659247 141.20449638 -0.56806183 C150.23943377 -0.68752765 156.79859619 -0.13727329 163.70787048 6.16062927 C164.23376235 6.61557361 164.75965422 7.07051794 165.3014822 7.53924847 C166.74054715 8.84025742 168.10689742 10.2202406 169.47129822 11.59934998 C170.2292292 12.35903328 170.2292292 12.35903328 171.00247192 13.13406372 C172.63926795 14.77793775 174.26527674 16.43204784 175.89146423 18.08641052 C177.03892598 19.24202428 178.18713787 20.39689363 179.33605957 21.55105591 C182.33544259 24.56743083 185.32610745 27.59229234 188.3144989 30.61955261 C193.1191609 35.48379838 197.93695094 40.33503703 202.75509834 45.18591881 C204.43412812 46.87890947 206.10929292 48.57565108 207.78390503 50.27301025 C208.80592421 51.3050471 209.8280198 52.33700829 210.85020447 53.36888123 C211.74239182 54.2723378 212.63457916 55.17579437 213.55380249 56.10662842 C217.54525704 59.91266011 221.29723245 59.29714391 226.5435791 59.2784729 C227.4699878 59.27917748 228.39639649 59.27988207 229.35087818 59.280608 C232.47453258 59.28192291 235.59813721 59.27622961 238.7217865 59.27073669 C240.9537557 59.27049469 243.18572501 59.27077136 245.41769409 59.27153015 C250.23477074 59.27263858 255.05183789 59.27119799 259.86891365 59.26816368 C267.48728556 59.2645393 275.10560754 59.27365381 282.72396851 59.28594971 C284.65102224 59.2889826 284.65102224 59.2889826 286.61700636 59.29207677 C289.24466011 59.29624568 291.87231381 59.30044843 294.49996746 59.30468428 C301.25880171 59.31541348 308.01763648 59.32529312 314.776474 59.33372498 C315.45484237 59.33457623 316.13321074 59.33542748 316.83213573 59.33630452 C327.81258145 59.34951025 338.79295445 59.3445156 349.77339936 59.33365341 C361.04996848 59.32301219 372.32635953 59.33565294 383.60290092 59.36773568 C389.93298764 59.38489585 396.26267157 59.39117188 402.59276009 59.37161827 C408.55107692 59.35338115 414.50870039 59.36301776 420.466959 59.39387512 C422.65141523 59.40023799 424.8359292 59.39639499 427.02034378 59.38147926 C430.00881619 59.36259161 432.99491708 59.38075356 435.98327637 59.40786743 C436.84283277 59.39359921 437.70238917 59.37933099 438.58799273 59.3646304 C446.28857562 59.50529954 451.457107 62.99876809 456.88609314 68.27928162 C462.25570583 76.53503704 461.37795884 85.32238686 461.08287048 94.78562927 C461.05271995 96.47438358 461.02535315 98.16318999 461.00083923 99.85203552 C460.93527413 103.95620512 460.83204331 108.05783178 460.70787048 112.16062927 C459.96021423 111.81129333 459.21255798 111.4619574 458.44224548 111.10203552 C457.45740173 110.64699646 456.47255798 110.1919574 455.45787048 109.72312927 C454.48333923 109.27066833 453.50880798 108.8182074 452.50474548 108.35203552 C450.21535354 107.37680571 448.13408302 106.66320187 445.70787048 106.16062927 C445.68281433 105.35842957 445.65775818 104.55622986 445.63194275 103.72972107 C445.51605005 100.10235853 445.39329297 96.4752601 445.27037048 92.84812927 C445.23105408 91.58549255 445.19173767 90.32285583 445.15122986 89.0219574 C445.10933533 87.8134613 445.0674408 86.60496521 445.02427673 85.35984802 C444.98761902 84.24440613 444.9509613 83.12896423 444.91319275 81.97972107 C444.81855839 79.08189357 444.81855839 79.08189357 443.70787048 76.16062927 C386.94118135 76.09202377 330.17449633 76.03913134 273.40777392 76.00743328 C266.71215175 76.00368098 260.01652965 75.99980151 253.32090759 75.99583435 C252.32144625 75.99524593 252.32144625 75.99524593 251.30179376 75.99464563 C229.69094352 75.98185343 208.08011676 75.95931344 186.46928076 75.93173761 C163.63913456 75.90265872 140.80899869 75.88464632 117.97883397 75.87836379 C104.29621103 75.87423906 90.61365547 75.86119249 76.93105326 75.83687987 C67.55957719 75.82107183 58.18813617 75.81621768 48.81664773 75.82012514 C43.40269242 75.8220544 37.98885519 75.81901277 32.57492065 75.80301285 C27.62481928 75.78848982 22.67491619 75.7876271 17.72480599 75.79793259 C15.92799068 75.7992076 14.13116334 75.79533789 12.33437195 75.78597973 C9.90345468 75.77404858 7.47326584 75.7803623 5.04236126 75.79148579 C4.33470423 75.78360475 3.62704721 75.7757237 2.89794603 75.76760384 C0.08102261 75.79700014 -1.84971117 75.86451557 -4.22561473 77.45472449 C-6.12439403 80.49184757 -5.7307166 84.01166548 -5.72450256 87.48753357 C-5.73469421 88.33653229 -5.74488586 89.18553101 -5.75538635 90.06025696 C-5.78559807 92.86852039 -5.79479472 95.6764432 -5.80384827 98.48484802 C-5.8206889 100.43113343 -5.8388383 102.37740793 -5.85824585 104.32366943 C-5.90581884 109.44791757 -5.93558097 114.57212146 -5.96168518 119.69651794 C-5.99145391 124.92487836 -6.03799686 130.15308617 -6.08314514 135.3813324 C-6.16926129 145.64101832 -6.23656958 155.90073558 -6.29212952 166.16062927 C-7.1622467 166.43326599 -7.1622467 166.43326599 -8.04994202 166.71141052 C-9.22169983 167.0884613 -9.22169983 167.0884613 -10.41712952 167.47312927 C-11.18283264 167.71676208 -11.94853577 167.9603949 -12.73744202 168.21141052 C-15.7106922 169.31615027 -18.46510459 170.72670508 -21.29212952 172.16062927 C-21.4090463 151.9762581 -21.49715855 131.79195586 -21.55119038 111.60731602 C-21.57694764 102.2347537 -21.61205066 92.86240205 -21.66932678 83.48997498 C-21.71923777 75.31883743 -21.75143854 67.14785249 -21.76257199 58.97656673 C-21.76907777 54.65177349 -21.78431605 50.32741677 -21.8207798 46.00276375 C-21.85486122 41.92742203 -21.86515824 37.85269428 -21.85766792 33.77722359 C-21.85903708 32.28612932 -21.86889752 30.79501332 -21.88815689 29.30404282 C-21.99138543 20.89613497 -21.67016507 14.02150416 -16.29212952 7.16062927 C-14.12416077 5.00437927 -14.12416077 5.00437927 -12.10462952 3.66062927 C-11.43044983 3.19656677 -10.75627014 2.73250427 -10.06166077 2.25437927 C-6.51148399 0.06000952 -4.19502111 0.02455789 0 0 Z " fill="#FEBB2A" transform="translate(36.29212951660156,37.83937072753906)"/>
<path d="M0 0 C139.26 0 278.52 0 422 0 C422 4.95 422 9.9 422 15 C420.08042323 15.00238835 418.16084646 15.00477671 416.1831007 15.00723743 C370.65510285 15.06455021 325.12715127 15.13724713 279.59920917 15.22898628 C274.00014032 15.24025496 268.40107122 15.25139333 262.80200195 15.26245117 C261.12993339 15.2657567 261.12993339 15.2657567 259.42408565 15.269129 C241.35541145 15.30453807 223.28673728 15.3293818 205.2180412 15.35034702 C186.68918553 15.37208036 168.16037503 15.40510719 149.63155776 15.44870156 C138.19074616 15.47526088 126.74999088 15.49292469 115.30914996 15.49934604 C107.47245431 15.50458686 99.63582966 15.52075965 91.79917201 15.54566566 C87.27229504 15.55972561 82.74554528 15.5688348 78.2186451 15.56500816 C74.07898269 15.56161481 69.93959265 15.57186441 65.7999861 15.59323552 C64.29793316 15.59853332 62.79585214 15.59870727 61.29379924 15.59339563 C59.26067096 15.58693521 57.22750791 15.60050977 55.19442272 15.61523914 C54.06247642 15.61713775 52.93053011 15.61903635 51.76428241 15.62099248 C48.9986869 15.78181086 48.9986869 15.78181086 47.12847358 17.33654755 C45.40211347 19.8813284 45.75038908 22.00466901 46 25 C46.495 26.485 46.495 26.485 47 28 C50.73813258 29.62839998 55.09946698 29.15312454 59.11175537 29.15821838 C59.93596709 29.16315636 60.76017882 29.16809434 61.60936666 29.17318195 C64.37466688 29.18855564 67.13994389 29.19691724 69.90527344 29.20532227 C71.88613591 29.21490089 73.86699634 29.22491096 75.84785461 29.23532104 C81.22966445 29.26237787 86.61148305 29.28338325 91.99332333 29.30332303 C97.61610962 29.32517776 103.23886884 29.35256897 108.8616333 29.37937927 C119.51106665 29.42931308 130.16051502 29.47424938 140.80997777 29.51740164 C152.93319512 29.56676811 165.05638531 29.62168844 177.1795764 29.67708123 C202.11969226 29.79091185 227.05983417 29.89774856 252 30 C250.67459702 31.45676651 250.67459702 31.45676651 249.32241821 32.94296265 C247.05099302 35.58581775 245.21001938 38.20061322 243.51864624 41.24526978 C235.44735364 55.65136001 223.96003677 69.32299838 208 75 C178.03559488 82.90714763 143.23628631 78.82686999 112.62350249 77.73701787 C100.32524062 77.30695888 88.02606118 77.10201373 75.72211766 76.91229701 C50.4711543 76.5180843 25.24087213 75.8231661 0 75 C0 60.15 0 45.3 0 30 C11.75 29.5625 11.75 29.5625 15.43652344 29.43188477 C16.40106445 29.39377686 17.36560547 29.35566895 18.359375 29.31640625 C19.83615723 29.26141968 19.83615723 29.26141968 21.34277344 29.20532227 C23.68923551 29.02401258 25.74718412 28.65668181 28 28 C28.19573608 26.56359829 28.38127816 25.12580496 28.5625 23.6875 C28.66691406 22.88699219 28.77132812 22.08648437 28.87890625 21.26171875 C29.14755178 18.83182884 29.14755178 18.83182884 28 16 C14.14 15.505 14.14 15.505 0 15 C0 10.05 0 5.1 0 0 Z " fill="#FCFCFC" transform="translate(45,128)"/>
<path d="M0 0 C19.81053264 -0.07013232 39.62104003 -0.12300887 59.43167114 -0.15543652 C68.6304337 -0.17089454 77.82911904 -0.19196369 87.02783203 -0.22631836 C95.04697186 -0.25625332 103.06605575 -0.27558274 111.0852499 -0.28226548 C115.32996483 -0.2861708 119.57451978 -0.29532662 123.81918335 -0.31719017 C127.81808746 -0.33762011 131.81676635 -0.34382071 135.8157177 -0.33932304 C137.27979699 -0.34014534 138.74388416 -0.34607223 140.20791817 -0.35761642 C149.77443847 -0.42932186 158.17692691 -0.39767322 165.62821257 6.44876474 C171.67010672 13.28101807 172.72756791 19.88637219 172.63491821 28.7587738 C172.64271817 29.91505329 172.65051812 31.07133277 172.65855443 32.26265103 C172.67497314 35.44998531 172.66916632 38.63635697 172.65362334 41.82366621 C172.64226604 45.26958964 172.65979419 48.71538732 172.67352295 52.1612854 C172.69571421 58.90327317 172.69097246 65.64498205 172.67645974 72.38698059 C172.66515029 77.8686829 172.66364397 83.35030726 172.66907883 88.8320179 C172.66984499 89.61333849 172.67061116 90.39465908 172.67140054 91.19965606 C172.67299923 92.78709596 172.6746203 94.37453584 172.6762635 95.9619757 C172.69050919 110.83524045 172.67414734 125.70835092 172.64726166 140.58159036 C172.62492831 153.33091941 172.62880076 166.08002077 172.65185547 178.8293457 C172.67864196 193.64920916 172.68913139 208.46893747 172.67379415 223.28882176 C172.67220148 224.87060326 172.67062962 226.45238479 172.66907883 228.03416634 C172.66830745 228.81234753 172.66753607 229.59052873 172.66674132 230.39229117 C172.66243252 235.86400744 172.66969322 241.33563768 172.68147659 246.80734062 C172.69553205 253.48055484 172.69163825 260.15347516 172.66507287 266.82665592 C172.65197453 270.22854434 172.64671308 273.62994364 172.66331863 277.03182793 C172.67701352 280.72645157 172.65980699 284.41970579 172.63491821 288.11424255 C172.64607182 289.18011343 172.65722543 290.24598431 172.66871703 291.3441543 C172.57552546 298.49259098 171.09565265 304.06043017 167 310 C160.60249795 316.16541337 154.19015644 318.31294363 145.32760048 318.24609566 C144.19275901 318.24955719 144.19275901 318.24955719 143.03499144 318.25308865 C140.49741082 318.25838651 137.9600835 318.24940636 135.42251587 318.24050903 C133.58592557 318.24138114 131.74933551 318.24313223 129.91274679 318.24568737 C124.8639723 318.25016381 119.81528252 318.24215309 114.76651883 318.23213124 C109.32281066 318.22350336 103.87910737 318.22641644 98.43539429 318.22793579 C89.00312796 318.22898506 79.57088928 318.22270406 70.13862991 318.21146011 C56.50112841 318.19521378 42.8636403 318.18999799 29.22613017 318.18748413 C7.10077861 318.18310567 -15.02455887 318.16980963 -37.14990234 318.15087891 C-58.64404219 318.13250948 -80.1381781 318.11834253 -101.63232422 318.10986328 C-102.29489589 318.10960023 -102.95746755 318.10933718 -103.64011715 318.10906615 C-110.95418663 318.10616744 -118.26825615 318.10338376 -125.5823257 318.10064721 C-180.72156064 318.07991 -235.86077962 318.04468035 -291 318 C-291 317.67 -291 317.34 -291 317 C-290.08991568 317.00016235 -289.17983136 317.0003247 -288.24216872 317.00049198 C-234.33966078 317.00934835 -180.43724266 316.98707632 -126.53476815 316.92420971 C-120.06704295 316.91669339 -113.59931748 316.90943796 -107.1315918 316.90234375 C-105.84394838 316.900927 -104.55630497 316.89951025 -103.22964206 316.89805056 C-82.36229215 316.87571349 -61.49499166 316.87452541 -40.62763313 316.88111137 C-19.22625893 316.88739669 2.17501109 316.87105155 23.57635385 316.83356392 C36.78916317 316.81113706 50.00173543 316.80650106 63.21455268 316.82440336 C72.2670047 316.83498016 81.31926133 316.82363585 90.37167313 316.79483847 C95.59966122 316.77886136 100.82718483 316.77275528 106.05517006 316.79260826 C110.83786093 316.81055757 115.61967102 316.8010935 120.40228371 316.76946117 C122.13586602 316.76289927 123.86952212 316.76655567 125.60305455 316.78125392 C127.95433356 316.79972124 130.30255089 316.78150858 132.65367413 316.75390434 C133.96105122 316.7531449 135.26842832 316.75238546 136.6154229 316.75160301 C141.20160782 315.73316251 142.44684141 313.86084273 145 310 C148.89449959 301.99749705 149.57971109 294.05138412 149.51898193 285.28167725 C149.52648319 284.0586091 149.53398444 282.83554095 149.541713 281.57541013 C149.55837876 278.21595415 149.55746769 274.85737208 149.54880548 271.49794459 C149.54382902 267.86208248 149.56198449 264.22632326 149.57722473 260.59049988 C149.60046354 254.30299198 149.60928854 248.01559917 149.60811615 241.72805023 C149.60644227 232.63751795 149.62682874 223.54713847 149.65247145 214.45664707 C149.69348908 199.70531773 149.71684924 184.95401601 149.72900391 170.20263672 C149.74084387 155.87936749 149.76110815 141.55615046 149.79248047 127.23291016 C149.79539874 125.89343651 149.79539874 125.89343651 149.79837596 124.52690279 C149.81365829 117.5424224 149.82942669 110.55794312 149.8453486 103.57346416 C149.92316687 69.38231795 149.95861626 35.19124723 150 1 C100.5 1 51 1 0 1 C0 0.67 0 0.34 0 0 Z " fill="#F4B52B" transform="translate(325,157)"/>
<path d="M0 0 C139.26 0 278.52 0 422 0 C422 4.95 422 9.9 422 15 C420.08042323 15.00238835 418.16084646 15.00477671 416.1831007 15.00723743 C370.65510285 15.06455021 325.12715127 15.13724713 279.59920917 15.22898628 C274.00014032 15.24025496 268.40107122 15.25139333 262.80200195 15.26245117 C261.12993339 15.2657567 261.12993339 15.2657567 259.42408565 15.269129 C241.35541145 15.30453807 223.28673728 15.3293818 205.2180412 15.35034702 C186.68918553 15.37208036 168.16037503 15.40510719 149.63155776 15.44870156 C138.19074616 15.47526088 126.74999088 15.49292469 115.30914996 15.49934604 C107.47245431 15.50458686 99.63582966 15.52075965 91.79917201 15.54566566 C87.27229504 15.55972561 82.74554528 15.5688348 78.2186451 15.56500816 C74.07898269 15.56161481 69.93959265 15.57186441 65.7999861 15.59323552 C64.29793316 15.59853332 62.79585214 15.59870727 61.29379924 15.59339563 C59.26067096 15.58693521 57.22750791 15.60050977 55.19442272 15.61523914 C54.06247642 15.61713775 52.93053011 15.61903635 51.76428241 15.62099248 C49.00167606 15.77641257 49.00167606 15.77641257 47.17534858 17.33654755 C45.80321155 19.10839505 45.80321155 19.10839505 45 22 C40.05 22 35.1 22 30 22 C29.34 20.02 28.68 18.04 28 16 C14.14 15.505 14.14 15.505 0 15 C0 10.05 0 5.1 0 0 Z " fill="#B7EAF7" transform="translate(45,128)"/>
<path d="M0 0 C16.63759608 -1.03149275 16.63759608 -1.03149275 22.1875 2.375 C27.73359411 7.31626561 31.88568131 12.55850054 32.48022461 20.18603516 C32.66203954 25.00363393 32.52519425 29.80839331 32.375 34.625 C32.34484946 36.3137543 32.31748267 38.00256072 32.29296875 39.69140625 C32.22740365 43.79557584 32.12417282 47.89720251 32 52 C31.25234375 51.65066406 30.5046875 51.30132812 29.734375 50.94140625 C28.74953125 50.48636719 27.7646875 50.03132813 26.75 49.5625 C25.77546875 49.11003906 24.8009375 48.65757812 23.796875 48.19140625 C21.50748305 47.21617644 19.42621254 46.5025726 17 46 C16.97494385 45.19780029 16.9498877 44.39560059 16.92407227 43.5690918 C16.80817957 39.94172926 16.68542249 36.31463083 16.5625 32.6875 C16.52318359 31.42486328 16.48386719 30.16222656 16.44335938 28.86132812 C16.40146484 27.65283203 16.35957031 26.44433594 16.31640625 25.19921875 C16.27974854 24.08377686 16.24309082 22.96833496 16.20532227 21.8190918 C16.11068791 18.92126429 16.11068791 18.92126429 15 16 C-131.52 15.67 -278.04 15.34 -429 15 C-429 14.67 -429 14.34 -429 14 C-284.79 14 -140.58 14 8 14 C3.74535599 4.74535599 3.74535599 4.74535599 0 0 Z " fill="#D38C2A" transform="translate(465,98)"/>
<path d="M0 0 C7.26 0 14.52 0 22 0 C22 4.62 22 9.24 22 14 C14.74 14 7.48 14 0 14 C0 9.38 0 4.76 0 0 Z " fill="#8AE7FF" transform="translate(445,128)"/>
</svg>
